<?xml version="1.0" encoding="UTF-8" standalone="no"?>
<svg
   xmlns:dc="http://purl.org/dc/elements/1.1/"
   xmlns:cc="http://creativecommons.org/ns#"
   xmlns:rdf="http://www.w3.org/1999/02/22-rdf-syntax-ns#"
   xmlns:svg="http://www.w3.org/2000/svg"
   xmlns="http://www.w3.org/2000/svg"
   xmlns:sodipodi="http://sodipodi.sourceforge.net/DTD/sodipodi-0.dtd"
   xmlns:inkscape="http://www.inkscape.org/namespaces/inkscape"
   version="1.1"
   id="svg6327"
   viewBox="0 0 49.999998 50.000146"
   height="14.111153mm"
   width="14.111111mm"
   inkscape:version="0.91 r13725"
   sodipodi:docname="logo.svg">
  <sodipodi:namedview
     pagecolor="#ffffff"
     bordercolor="#666666"
     borderopacity="1"
     objecttolerance="10"
     gridtolerance="10"
     guidetolerance="10"
     inkscape:pageopacity="0"
     inkscape:pageshadow="2"
     inkscape:window-width="1920"
     inkscape:window-height="1017"
     id="namedview10"
     showgrid="false"
     inkscape:zoom="11.313709"
     inkscape:cx="5.8285228"
     inkscape:cy="29.615398"
     inkscape:window-x="-8"
     inkscape:window-y="-8"
     inkscape:window-maximized="1"
     inkscape:current-layer="svg6327" />
  <defs
     id="defs6329" />
  <metadata
     id="metadata6332">
    <rdf:RDF>
      <cc:Work
         rdf:about="">
        <dc:format>image/svg+xml</dc:format>
        <dc:type
           rdf:resource="http://purl.org/dc/dcmitype/StillImage" />
        <dc:title />
      </cc:Work>
    </rdf:RDF>
  </metadata>
  <path
     style="opacity:1;fill:none;fill-opacity:1;stroke:#3a3b3d;stroke-width:1.99999976;stroke-linejoin:miter;stroke-miterlimit:4;stroke-dasharray:none;stroke-opacity:1"
     d="m 25,1 a 10.999996,23.999997 0 0 0 -0.933594,0.1015625 10.999996,23.999997 0 0 0 -0.552734,0.1464844 10.999996,23.999997 0 0 0 -0.544922,0.1796875 10.999996,23.999997 0 0 0 -0.525391,0.2578125 10.999996,23.999997 0 0 0 -0.535156,0.296875 10.999996,23.999997 0 0 0 -0.537109,0.3886719 10.999996,23.999997 0 0 0 -0.498047,0.3964843 10.999996,23.999997 0 0 0 -0.515625,0.5039063 10.999996,23.999997 0 0 0 -0.486328,0.5136718 10.999996,23.999997 0 0 0 -0.46875,0.5878907 10.999996,23.999997 0 0 0 -0.478516,0.6386719 10.999996,23.999997 0 0 0 -0.43164,0.6738281 10.999996,23.999997 0 0 0 -0.455079,0.7519531 10.999996,23.999997 0 0 0 -0.404297,0.7773438 10.999996,23.999997 0 0 0 -0.40625,0.8242187 10.999996,23.999997 0 0 0 -0.36914,0.8632813 10.999996,23.999997 0 0 0 -0.373047,0.9296874 10.999996,23.999997 0 0 0 -0.564453,1.6152348 22.499997,9.4999963 30 0 1 0.01758,0.002 10.999996,23.999997 0 0 0 -1.529297,7.166015 A 10.999996,23.999997 0 0 0 14,25 a 10.999996,23.999997 0 0 0 0.400391,6.285156 10.999996,23.999997 0 0 0 1.201171,6.150391 8.2499962,21.249997 60 0 0 1.427735,-0.300781 9.4999963,22.499997 0 0 1 -0.998047,-4.800782 23.999997,10.999996 30 0 0 3.470703,2.189454 23.999997,10.999996 30 0 0 2.171875,1.177734 8.2499962,21.249997 60 0 0 7.451172,-3.554688 8.2499962,21.249997 60 0 0 4.380859,-2.828125 l 1.226563,0.628907 a 9.4999963,22.499997 60 0 1 -4.982422,3.28125 9.4999963,22.499997 60 0 1 -13.826172,5.326172 10.999996,23.999997 0 0 0 0.002,0.0098 9.4999963,22.499997 60 0 1 -0.396484,0.05859 9.4999963,22.499997 60 0 1 -1.048828,0.152344 9.4999963,22.499997 60 0 1 -0.830078,0.08203 9.4999963,22.499997 60 0 1 -0.714844,0.05273 9.4999963,22.499997 60 0 1 -0.244141,0.01758 9.4999963,22.499997 60 0 1 -0.548828,-0.0059 9.4999963,22.499997 60 0 1 -0.734375,-0.0059 9.4999963,22.499997 60 0 1 -0.752,-0.06049 A 9.4999963,22.499997 60 0 1 9.9980469,38.783203 9.4999963,22.499997 60 0 1 9.3339844,38.652344 9.4999963,22.499997 60 0 1 8.75,38.513672 9.4999963,22.499997 60 0 1 8.1601562,38.308594 9.4999963,22.499997 60 0 1 7.6582031,38.107422 9.4999963,22.499997 60 0 1 7.171875,37.839844 9.4999963,22.499997 60 0 1 6.7382812,37.570312 9.4999963,22.499997 60 0 1 6.3476562,37.238281 9.4999963,22.499997 60 0 1 6.0058594,36.908203 9.4999963,22.499997 60 0 1 5.515625,36.251953 9.4999963,22.499997 60 0 1 5.3066406,35.759766 9.4999963,22.499997 60 0 1 5.1289062,35.3125 9.4999963,22.499997 60 0 1 5.0371094,34.792969 9.4999963,22.499997 60 0 1 4.96875,34.335938 a 9.4999963,22.499997 60 0 1 0.011719,-0.613282 9.4999963,22.499997 60 0 1 0.021484,-0.470703 9.4999963,22.499997 60 0 1 0.1308594,-0.664062 9.4999963,22.499997 60 0 1 0.1054687,-0.496094 9.4999963,22.499997 60 0 1 0.2421876,-0.707031 9.4999963,22.499997 60 0 1 0.1894531,-0.525391 9.4999963,22.499997 60 0 1 0.40625,-0.851563 9.4999963,22.499997 60 0 1 0.2089843,-0.419921 9.4999963,22.499997 60 0 1 0.5351563,-0.890625 9.4999963,22.499997 60 0 1 0.2832031,-0.460938 9.4999963,22.499997 60 0 1 0.578125,-0.804687 9.4999963,22.499997 60 0 1 0.4355469,-0.595703 9.4999963,22.499997 60 0 1 0.1972656,-0.244141 9.4999963,22.499997 60 0 1 0.4179688,-0.515625 23.999997,10.999996 30 0 0 0.00977,0.0098 9.4999963,22.499997 60 0 1 1.9277342,-2.105469 l 1.15625,0.539062 A 8.2499962,21.249997 60 0 0 9.5527344,26.919922 23.999997,10.999996 30 0 0 13,30.048828 12.249996,25.249999 0 0 1 12.75,25 12.249996,25.249999 0 0 1 13.015625,19.945312 10.999996,23.999997 60 0 0 9.28125,23.330078 l 0.00586,0.0039 a 10.999996,23.999997 60 0 0 -1.5078125,1.673828 10.999996,23.999997 60 0 0 -1.1914063,1.517579 10.999996,23.999997 60 0 0 -0.65625,0.980468 10.999996,23.999997 60 0 0 -0.359375,0.53711 10.999996,23.999997 60 0 0 -0.328125,0.591797 10.999996,23.999997 60 0 0 -0.4960937,0.90039 10.999996,23.999997 60 0 0 -0.6171875,1.439453 10.999996,23.999997 60 0 0 -0.40625,1.367188 10.999996,23.999997 60 0 0 -0.095703,0.621094 10.999996,23.999997 60 0 0 -0.1035156,0.695312 10.999996,23.999997 60 0 0 0.00195,0.123047 10.999996,23.999997 60 0 0 0.017578,1.095703 10.999996,23.999997 60 0 0 0.054687,0.263672 10.999996,23.999997 60 0 0 0.1757812,0.853516 A 10.999996,23.999997 60 0 0 4.2167969,37 a 10.999996,23.999997 60 0 0 0,0.002 10.999996,23.999997 60 0 0 0.5585937,0.759766 10.999996,23.999997 60 0 0 0.3925782,0.396484 10.999996,23.999997 60 0 0 0.4296874,0.382813 10.999996,23.999997 60 0 0 0.5019532,0.339843 10.999996,23.999997 60 0 0 0.515625,0.306641 10.999996,23.999997 60 0 0 0.5800781,0.259766 10.999996,23.999997 60 0 0 0.6328125,0.248046 10.999996,23.999997 60 0 0 0.6171875,0.173829 10.999996,23.999997 60 0 0 0.7773437,0.185547 10.999996,23.999997 60 0 0 0.6640626,0.101562 10.999996,23.999997 60 0 0 0.8554692,0.101562 10.999996,23.999997 60 0 0 0.771484,0.03516 10.999996,23.999997 60 0 0 0.90625,0.01758 10.999996,23.999997 60 0 0 0.808594,-0.03516 10.999996,23.999997 60 0 0 1,-0.06641 10.999996,23.999997 60 0 0 0.851562,-0.101562 A 10.999996,23.999997 60 0 0 16.125,39.958984 10.999996,23.999997 60 0 0 17.802734,39.638672 9.4999963,22.499997 0 0 1 17.796875,39.625 10.999996,23.999997 60 0 0 24.771484,37.365234 10.999996,23.999997 60 0 0 30.5,34.527344 10.999996,23.999997 60 0 0 35.746094,31.033203 10.999996,23.999997 60 0 0 40.46875,26.919922 21.249997,8.2499962 30 0 0 39.498047,25.837891 9.4999963,22.499997 60 0 1 35.839844,29.101562 10.999996,23.999997 0 0 0 36.001953,25.001953 10.999996,23.999997 0 0 0 35.933594,22.53125 21.249997,8.2499962 30 0 0 29.125,17.853516 21.249997,8.2499962 30 0 0 24.486328,15.476562 l -0.06836,-1.378906 a 22.499997,9.4999963 30 0 1 5.332031,2.673828 22.499997,9.4999963 30 0 1 6.078125,4.121094 22.499997,9.4999963 30 0 1 1.623047,1.341797 22.499997,9.4999963 30 0 1 0.0078,0.0078 22.499997,9.4999963 30 0 1 0.0039,0.0039 22.499997,9.4999963 30 0 1 1.501953,1.375 22.499997,9.4999963 30 0 1 1.349609,1.373047 22.499997,9.4999963 30 0 1 0.0059,0.0059 22.499997,9.4999963 30 0 1 0.958985,1.083984 10.999996,23.999997 60 0 0 0.0059,-0.0078 22.499997,9.4999963 30 0 1 0.230469,0.294922 22.499997,9.4999963 30 0 1 0.71875,0.914062 22.499997,9.4999963 30 0 1 0.328125,0.458985 22.499997,9.4999963 30 0 1 0.591797,0.878906 22.499997,9.4999963 30 0 1 0.306641,0.509765 22.499997,9.4999963 30 0 1 0.441406,0.798829 22.499997,9.4999963 30 0 1 0.251953,0.529297 22.499997,9.4999963 30 0 1 0.314453,0.736328 22.499997,9.4999963 30 0 1 0.179688,0.523437 22.499997,9.4999963 30 0 1 0.197265,0.689453 22.499997,9.4999963 30 0 1 0.0957,0.498047 22.499997,9.4999963 30 0 1 0.08203,0.636719 22.499997,9.4999963 30 0 1 0.0098,0.478516 22.499997,9.4999963 30 0 1 -0.0293,0.574218 22.499997,9.4999963 30 0 1 -0.08008,0.4375 22.499997,9.4999963 30 0 1 -0.138672,0.519532 22.499997,9.4999963 30 0 1 -0.298828,0.693359 22.499997,9.4999963 30 0 1 -0.304687,0.408203 22.499997,9.4999963 30 0 1 -0.324219,0.40625 22.499997,9.4999963 30 0 1 -0.25586,0.214844 22.499997,9.4999963 30 0 1 -0.53125,0.427734 22.499997,9.4999963 30 0 1 -0.220703,0.121094 22.499997,9.4999963 30 0 1 -0.755859,0.392578 22.499997,9.4999963 30 0 1 -0.136719,0.04687 22.499997,9.4999963 30 0 1 -1.005859,0.328125 22.499997,9.4999963 30 0 1 -0.0078,0.002 22.499997,9.4999963 30 0 1 -0.06055,0.0098 22.499997,9.4999963 30 0 1 -1.236328,0.222656 22.499997,9.4999963 30 0 1 -1.24414,0.09961 22.499997,9.4999963 30 0 1 -1.75,-0.05078 22.499997,9.4999963 30 0 1 -0.236328,-0.02344 22.499997,9.4999963 30 0 1 -1.4375,-0.15625 22.499997,9.4999963 30 0 1 -0.144532,-0.02344 22.499997,9.4999963 30 0 1 -0.767578,-0.123047 10.999996,23.999997 0 0 0 0.0039,-0.01367 22.499997,9.4999963 30 0 1 -2.787109,-0.617187 l -0.113281,-1.271484 a 21.249997,8.2499962 30 0 0 3.214844,0.769531 10.999996,23.999997 0 0 0 0.986328,-4.546875 12.249996,25.249999 60 0 1 -4.246094,2.738281 12.249996,25.249999 60 0 1 -4.503906,2.300781 23.999997,10.999996 30 0 0 4.792968,1.539063 l 0,-0.0078 a 23.999997,10.999996 30 0 0 2.207032,0.46875 10.999996,23.999997 0 0 0 0,-0.002 23.999997,10.999996 30 0 0 9.611328,-0.640625 23.999997,10.999996 30 0 0 0.0078,-0.002 23.999997,10.999996 30 0 0 0.246094,-0.148437 23.999997,10.999996 30 0 0 0.798828,-0.478516 23.999997,10.999996 30 0 0 0.851563,-0.757813 23.999997,10.999996 30 0 0 0.0039,-0.0039 A 23.999997,10.999996 30 0 0 45.785156,37 a 23.999997,10.999996 30 0 0 0,-0.002 23.999997,10.999996 30 0 0 0.01172,-0.02344 23.999997,10.999996 30 0 0 0.365234,-0.832031 23.999997,10.999996 30 0 0 0.150391,-0.552734 23.999997,10.999996 30 0 0 0.117188,-0.5625 23.999997,10.999996 30 0 0 0.04102,-0.59375 23.999997,10.999996 30 0 0 0.0078,-0.59961 23.999997,10.999996 30 0 0 -0.06836,-0.667968 23.999997,10.999996 30 0 0 -0.09375,-0.621094 23.999997,10.999996 30 0 0 -0.185547,-0.728516 23.999997,10.999996 30 0 0 -0.1875,-0.630859 A 23.999997,10.999996 30 0 0 45.642578,30.412109 23.999997,10.999996 30 0 0 45.357422,29.748047 23.999997,10.999996 30 0 0 44.96875,28.996094 23.999997,10.999996 30 0 0 44.556641,28.25 23.999997,10.999996 30 0 0 44.082031,27.505859 23.999997,10.999996 30 0 0 43.578125,26.75 a 23.999997,10.999996 30 0 0 -0.566406,-0.753906 23.999997,10.999996 30 0 0 -0.613281,-0.783203 23.999997,10.999996 30 0 0 -1.121094,-1.296875 9.4999963,22.499997 60 0 1 -0.0078,0.0098 A 23.999997,10.999996 30 0 0 36.048828,19.185547 23.999997,10.999996 30 0 0 30.5,15.472656 a 23.999997,10.999996 30 0 0 -5.640625,-2.792968 23.999997,10.999996 30 0 0 -5.929687,-2.035157 8.2499962,21.249997 0 0 0 -0.453126,1.384766 22.499997,9.4999963 30 0 1 4.654297,1.537109 10.999996,23.999997 60 0 0 -3.628906,1.908203 10.999996,23.999997 60 0 0 -2.107422,1.291016 A 8.2499962,21.249997 0 0 0 16.75,25 a 8.2499962,21.249997 0 0 0 0.259766,5.207031 l -1.160157,0.748047 A 9.4999963,22.499997 0 0 1 15.5,25 a 9.4999963,22.499997 0 0 1 0.882812,-9.408203 9.4999963,22.499997 0 0 1 0.433594,-1.96875 9.4999963,22.499997 0 0 1 0.0098,-0.03711 9.4999963,22.499997 0 0 1 0.507812,-1.830079 9.4999963,22.499997 0 0 1 0.0059,-0.01953 9.4999963,22.499997 0 0 1 0.460937,-1.375 23.999997,10.999996 30 0 0 -0.0078,-0.002 A 9.4999963,22.499997 0 0 1 17.89657,10.099562 9.4999963,22.499997 0 0 1 18.376953,8.8984375 9.4999963,22.499997 0 0 1 18.572266,8.4667969 9.4999963,22.499997 0 0 1 19.083984,7.4238281 9.4999963,22.499997 0 0 1 19.306641,7.0214844 9.4999963,22.499997 0 0 1 19.847656,6.1210938 9.4999963,22.499997 0 0 1 20.111328,5.7382812 9.4999963,22.499997 0 0 1 20.654297,5.015625 9.4999963,22.499997 0 0 1 20.970703,4.6523438 9.4999963,22.499997 0 0 1 21.507812,4.0957031 9.4999963,22.499997 0 0 1 21.865234,3.7871094 9.4999963,22.499997 0 0 1 22.394531,3.3828125 9.4999963,22.499997 0 0 1 22.794922,3.140625 9.4999963,22.499997 0 0 1 23.302734,2.8808594 9.4999963,22.499997 0 0 1 23.755859,2.71875 9.4999963,22.499997 0 0 1 24.232422,2.5917969 9.4999963,22.499997 0 0 1 24.996094,2.5 9.4999963,22.499997 0 0 1 25,2.5 a 9.4999963,22.499997 0 0 1 0.002,0 9.4999963,22.499997 0 0 1 0.517578,0.0625 9.4999963,22.499997 0 0 1 0.488281,0.074219 9.4999963,22.499997 0 0 1 0.435547,0.15625 9.4999963,22.499997 0 0 1 0.507813,0.2011718 9.4999963,22.499997 0 0 1 0.419922,0.2539063 9.4999963,22.499997 0 0 1 0.488281,0.3105469 9.4999963,22.499997 0 0 1 0.470703,0.4101562 9.4999963,22.499997 0 0 1 0.417969,0.3789062 9.4999963,22.499997 0 0 1 0.402344,0.4609376 9.4999963,22.499997 0 0 1 0.458984,0.5429687 9.4999963,22.499997 0 0 1 0.353516,0.515625 9.4999963,22.499997 0 0 1 0.449218,0.6699219 9.4999963,22.499997 0 0 1 0.361329,0.65625 9.4999963,22.499997 0 0 1 0.384765,0.7128906 9.4999963,22.499997 0 0 1 0.310547,0.6835938 9.4999963,22.499997 0 0 1 0.404297,0.9179687 9.4999963,22.499997 0 0 1 0.04687,0.125 9.4999963,22.499997 0 0 1 0.285156,0.7402343 10.999996,23.999997 60 0 0 -0.01563,0.0039 9.4999963,22.499997 0 0 1 0.859375,2.722656 l -1.044922,0.732422 a 8.2499962,21.249997 0 0 0 -0.939453,-3.167969 10.999996,23.999997 60 0 0 -4.433594,1.419922 25.249999,12.249996 30 0 1 4.494141,2.306641 25.249999,12.249996 30 0 1 4.248047,2.751953 10.999996,23.999997 0 0 0 -1.064453,-4.923828 l -0.0078,0.0059 A 10.999996,23.999997 0 0 0 33.603516,10.080078 10.999996,23.999997 0 0 0 33.386719,9.5449219 10.999996,23.999997 0 0 0 32.876953,8.2773438 10.999996,23.999997 0 0 0 32.072266,6.6425781 10.999996,23.999997 0 0 0 31.197266,5.1914062 10.999996,23.999997 0 0 0 30.259766,3.9375 10.999996,23.999997 0 0 0 29.271484,2.8964844 a 10.999996,23.999997 0 0 0 -0.002,-0.00195 10.999996,23.999997 0 0 0 -0.117187,-0.09375 10.999996,23.999997 0 0 0 -0.916016,-0.7285156 10.999996,23.999997 0 0 0 -0.03711,-0.021484 10.999996,23.999997 0 0 0 -1.027344,-0.5722656 10.999996,23.999997 0 0 0 -1.074219,-0.3554687 10.999996,23.999997 0 0 0 -0.002,0 A 10.999996,23.999997 0 0 0 25.001953,1 10.999996,23.999997 0 0 0 25,1 Z m 12.353516,8.6855469 a 10.999996,23.999997 60 0 0 -2.5625,0.2265625 12.249996,25.249999 0 0 1 0.464843,1.3535156 9.4999963,22.499997 60 0 1 2.19336,-0.193359 9.4999963,22.499997 60 0 1 7.037109,2.677734 9.4999963,22.499997 60 0 1 -2.453125,9.21875 25.249999,12.249996 30 0 1 0.929688,1.074219 A 10.999996,23.999997 60 0 0 45.785156,13 10.999996,23.999997 60 0 0 37.353516,9.6855469 Z M 12.638672,9.6972656 A 23.999997,10.999996 30 0 0 4.2167969,13 23.999997,10.999996 30 0 0 7.0390625,24.064453 12.249996,25.249999 60 0 1 7.9804688,22.986328 22.499997,9.4999963 30 0 1 5.515625,13.751953 22.499997,9.4999963 30 0 1 11.615234,11.082031 22.499997,9.4999963 30 0 1 14.744141,11.267578 12.249996,25.249999 0 0 1 15.185547,9.9199219 23.999997,10.999996 30 0 0 12.638672,9.6972656 Z M 31.765625,40.746094 A 9.4999963,22.499997 0 0 1 25.001953,47.498047 9.4999963,22.499997 0 0 1 18.244141,40.767578 12.249996,25.249999 60 0 1 16.847656,41.037109 10.999996,23.999997 0 0 0 25.001953,49 a 10.999996,23.999997 0 0 0 8.169922,-7.976562 25.249999,12.249996 30 0 1 -1.40625,-0.277344 z"
     id="path4386-0-4"
     inkscape:connector-curvature="0" />
  <g
     transform="translate(-3.5014598,-1001.3618)"
     id="layer1">
    <path
       id="path4386-0"
       transform="translate(3.5014598,1001.3618)"
       d="M 25 1 A 10.999996 23.999997 0 0 0 24.066406 1.1015625 A 10.999996 23.999997 0 0 0 23.513672 1.2480469 A 10.999996 23.999997 0 0 0 22.96875 1.4277344 A 10.999996 23.999997 0 0 0 22.443359 1.6855469 A 10.999996 23.999997 0 0 0 21.908203 1.9824219 A 10.999996 23.999997 0 0 0 21.371094 2.3710938 A 10.999996 23.999997 0 0 0 20.873047 2.7675781 A 10.999996 23.999997 0 0 0 20.357422 3.2714844 A 10.999996 23.999997 0 0 0 19.871094 3.7851562 A 10.999996 23.999997 0 0 0 19.402344 4.3730469 A 10.999996 23.999997 0 0 0 18.923828 5.0117188 A 10.999996 23.999997 0 0 0 18.492188 5.6855469 A 10.999996 23.999997 0 0 0 18.037109 6.4375 A 10.999996 23.999997 0 0 0 17.632812 7.2148438 A 10.999996 23.999997 0 0 0 17.226562 8.0390625 A 10.999996 23.999997 0 0 0 16.857422 8.9023438 A 10.999996 23.999997 0 0 0 16.484375 9.8320312 A 10.999996 23.999997 0 0 0 15.919922 11.447266 A 22.499997 9.4999963 30 0 1 15.9375 11.449219 A 10.999996 23.999997 0 0 0 14.408203 18.615234 A 10.999996 23.999997 0 0 0 14 25 A 10.999996 23.999997 0 0 0 14.400391 31.285156 A 10.999996 23.999997 0 0 0 15.601562 37.435547 A 8.2499962 21.249997 60 0 0 17.029297 37.134766 A 9.4999963 22.499997 0 0 1 16.03125 32.333984 A 23.999997 10.999996 30 0 0 19.501953 34.523438 A 23.999997 10.999996 30 0 0 21.673828 35.701172 A 8.2499962 21.249997 60 0 0 29.125 32.146484 A 8.2499962 21.249997 60 0 0 33.505859 29.318359 L 34.732422 29.947266 A 9.4999963 22.499997 60 0 1 29.75 33.228516 A 9.4999963 22.499997 60 0 1 15.923828 38.554688 A 10.999996 23.999997 0 0 0 15.925781 38.564453 A 9.4999963 22.499997 60 0 1 15.529297 38.623047 A 9.4999963 22.499997 60 0 1 14.480469 38.775391 A 9.4999963 22.499997 60 0 1 13.650391 38.857422 A 9.4999963 22.499997 60 0 1 12.935547 38.910156 A 9.4999963 22.499997 60 0 1 12.691406 38.927734 A 9.4999963 22.499997 60 0 1 12.142578 38.921875 A 9.4999963 22.499997 60 0 1 11.408203 38.916016 A 9.4999963 22.499997 60 0 1 10.65625 38.855469 A 9.4999963 22.499997 60 0 1 9.9980469 38.783203 A 9.4999963 22.499997 60 0 1 9.3339844 38.652344 A 9.4999963 22.499997 60 0 1 8.75 38.513672 A 9.4999963 22.499997 60 0 1 8.1601562 38.308594 A 9.4999963 22.499997 60 0 1 7.6582031 38.107422 A 9.4999963 22.499997 60 0 1 7.171875 37.839844 A 9.4999963 22.499997 60 0 1 6.7382812 37.570312 A 9.4999963 22.499997 60 0 1 6.3476562 37.238281 A 9.4999963 22.499997 60 0 1 6.0058594 36.908203 A 9.4999963 22.499997 60 0 1 5.515625 36.251953 A 9.4999963 22.499997 60 0 1 5.3066406 35.759766 A 9.4999963 22.499997 60 0 1 5.1289062 35.3125 A 9.4999963 22.499997 60 0 1 5.0371094 34.792969 A 9.4999963 22.499997 60 0 1 4.96875 34.335938 A 9.4999963 22.499997 60 0 1 4.9804688 33.722656 A 9.4999963 22.499997 60 0 1 5.0019531 33.251953 A 9.4999963 22.499997 60 0 1 5.1328125 32.587891 A 9.4999963 22.499997 60 0 1 5.2382812 32.091797 A 9.4999963 22.499997 60 0 1 5.4804688 31.384766 A 9.4999963 22.499997 60 0 1 5.6699219 30.859375 A 9.4999963 22.499997 60 0 1 6.0761719 30.007812 A 9.4999963 22.499997 60 0 1 6.2851562 29.587891 A 9.4999963 22.499997 60 0 1 6.8203125 28.697266 A 9.4999963 22.499997 60 0 1 7.1035156 28.236328 A 9.4999963 22.499997 60 0 1 7.6816406 27.431641 A 9.4999963 22.499997 60 0 1 8.1171875 26.835938 A 9.4999963 22.499997 60 0 1 8.3144531 26.591797 A 9.4999963 22.499997 60 0 1 8.7324219 26.076172 A 23.999997 10.999996 30 0 0 8.7421875 26.085938 A 9.4999963 22.499997 60 0 1 10.669922 23.980469 L 11.826172 24.519531 A 8.2499962 21.249997 60 0 0 9.5527344 26.919922 A 23.999997 10.999996 30 0 0 13 30.048828 A 12.249996 25.249999 0 0 1 12.75 25 A 12.249996 25.249999 0 0 1 13.015625 19.945312 A 10.999996 23.999997 60 0 0 9.28125 23.330078 L 9.2871094 23.333984 A 10.999996 23.999997 60 0 0 7.7792969 25.007812 A 10.999996 23.999997 60 0 0 6.5878906 26.525391 A 10.999996 23.999997 60 0 0 5.9316406 27.505859 A 10.999996 23.999997 60 0 0 5.5722656 28.042969 A 10.999996 23.999997 60 0 0 5.2441406 28.634766 A 10.999996 23.999997 60 0 0 4.7480469 29.535156 A 10.999996 23.999997 60 0 0 4.1308594 30.974609 A 10.999996 23.999997 60 0 0 3.7246094 32.341797 A 10.999996 23.999997 60 0 0 3.6289062 32.962891 A 10.999996 23.999997 60 0 0 3.5253906 33.658203 A 10.999996 23.999997 60 0 0 3.5273438 33.78125 A 10.999996 23.999997 60 0 0 3.5449219 34.876953 A 10.999996 23.999997 60 0 0 3.5996094 35.140625 A 10.999996 23.999997 60 0 0 3.7753906 35.994141 A 10.999996 23.999997 60 0 0 4.2167969 37 A 10.999996 23.999997 60 0 0 4.2167969 37.001953 A 10.999996 23.999997 60 0 0 4.7753906 37.761719 A 10.999996 23.999997 60 0 0 5.1679688 38.158203 A 10.999996 23.999997 60 0 0 5.5976562 38.541016 A 10.999996 23.999997 60 0 0 6.0996094 38.880859 A 10.999996 23.999997 60 0 0 6.6152344 39.1875 A 10.999996 23.999997 60 0 0 7.1953125 39.447266 A 10.999996 23.999997 60 0 0 7.828125 39.695312 A 10.999996 23.999997 60 0 0 8.4453125 39.869141 A 10.999996 23.999997 60 0 0 9.2226562 40.054688 A 10.999996 23.999997 60 0 0 9.8867188 40.15625 A 10.999996 23.999997 60 0 0 10.742188 40.257812 A 10.999996 23.999997 60 0 0 11.513672 40.292969 A 10.999996 23.999997 60 0 0 12.419922 40.310547 A 10.999996 23.999997 60 0 0 13.228516 40.275391 A 10.999996 23.999997 60 0 0 14.228516 40.208984 A 10.999996 23.999997 60 0 0 15.080078 40.107422 A 10.999996 23.999997 60 0 0 16.125 39.958984 A 10.999996 23.999997 60 0 0 17.802734 39.638672 A 9.4999963 22.499997 0 0 1 17.796875 39.625 A 10.999996 23.999997 60 0 0 24.771484 37.365234 A 10.999996 23.999997 60 0 0 30.5 34.527344 A 10.999996 23.999997 60 0 0 35.746094 31.033203 A 10.999996 23.999997 60 0 0 40.46875 26.919922 A 21.249997 8.2499962 30 0 0 39.498047 25.837891 A 9.4999963 22.499997 60 0 1 35.839844 29.101562 A 10.999996 23.999997 0 0 0 36.001953 25.001953 A 10.999996 23.999997 0 0 0 35.933594 22.53125 A 21.249997 8.2499962 30 0 0 29.125 17.853516 A 21.249997 8.2499962 30 0 0 24.486328 15.476562 L 24.417969 14.097656 A 22.499997 9.4999963 30 0 1 29.75 16.771484 A 22.499997 9.4999963 30 0 1 35.828125 20.892578 A 22.499997 9.4999963 30 0 1 37.451172 22.234375 A 22.499997 9.4999963 30 0 1 37.458984 22.242188 A 22.499997 9.4999963 30 0 1 37.462891 22.246094 A 22.499997 9.4999963 30 0 1 38.964844 23.621094 A 22.499997 9.4999963 30 0 1 40.314453 24.994141 A 22.499997 9.4999963 30 0 1 40.320312 25 A 22.499997 9.4999963 30 0 1 41.279297 26.083984 A 10.999996 23.999997 60 0 0 41.285156 26.076172 A 22.499997 9.4999963 30 0 1 41.515625 26.371094 A 22.499997 9.4999963 30 0 1 42.234375 27.285156 A 22.499997 9.4999963 30 0 1 42.5625 27.744141 A 22.499997 9.4999963 30 0 1 43.154297 28.623047 A 22.499997 9.4999963 30 0 1 43.460938 29.132812 A 22.499997 9.4999963 30 0 1 43.902344 29.931641 A 22.499997 9.4999963 30 0 1 44.154297 30.460938 A 22.499997 9.4999963 30 0 1 44.46875 31.197266 A 22.499997 9.4999963 30 0 1 44.648438 31.720703 A 22.499997 9.4999963 30 0 1 44.845703 32.410156 A 22.499997 9.4999963 30 0 1 44.941406 32.908203 A 22.499997 9.4999963 30 0 1 45.023438 33.544922 A 22.499997 9.4999963 30 0 1 45.033203 34.023438 A 22.499997 9.4999963 30 0 1 45.003906 34.597656 A 22.499997 9.4999963 30 0 1 44.923828 35.035156 A 22.499997 9.4999963 30 0 1 44.785156 35.554688 A 22.499997 9.4999963 30 0 1 44.486328 36.248047 A 22.499997 9.4999963 30 0 1 44.181641 36.65625 A 22.499997 9.4999963 30 0 1 43.857422 37.0625 A 22.499997 9.4999963 30 0 1 43.601562 37.277344 A 22.499997 9.4999963 30 0 1 43.070312 37.705078 A 22.499997 9.4999963 30 0 1 42.849609 37.826172 A 22.499997 9.4999963 30 0 1 42.09375 38.21875 A 22.499997 9.4999963 30 0 1 41.957031 38.265625 A 22.499997 9.4999963 30 0 1 40.951172 38.59375 A 22.499997 9.4999963 30 0 1 40.943359 38.595703 A 22.499997 9.4999963 30 0 1 40.882812 38.605469 A 22.499997 9.4999963 30 0 1 39.646484 38.828125 A 22.499997 9.4999963 30 0 1 38.402344 38.927734 A 22.499997 9.4999963 30 0 1 36.652344 38.876953 A 22.499997 9.4999963 30 0 1 36.416016 38.853516 A 22.499997 9.4999963 30 0 1 34.978516 38.697266 A 22.499997 9.4999963 30 0 1 34.833984 38.673828 A 22.499997 9.4999963 30 0 1 34.066406 38.550781 A 10.999996 23.999997 0 0 0 34.070312 38.537109 A 22.499997 9.4999963 30 0 1 31.283203 37.919922 L 31.169922 36.648438 A 21.249997 8.2499962 30 0 0 34.384766 37.417969 A 10.999996 23.999997 0 0 0 35.371094 32.871094 A 12.249996 25.249999 60 0 1 31.125 35.609375 A 12.249996 25.249999 60 0 1 26.621094 37.910156 A 23.999997 10.999996 30 0 0 31.414062 39.449219 L 31.414062 39.441406 A 23.999997 10.999996 30 0 0 33.621094 39.910156 A 10.999996 23.999997 0 0 0 33.621094 39.908203 A 23.999997 10.999996 30 0 0 43.232422 39.267578 A 23.999997 10.999996 30 0 0 43.240234 39.265625 A 23.999997 10.999996 30 0 0 43.486328 39.117188 A 23.999997 10.999996 30 0 0 44.285156 38.638672 A 23.999997 10.999996 30 0 0 45.136719 37.880859 A 23.999997 10.999996 30 0 0 45.140625 37.876953 A 23.999997 10.999996 30 0 0 45.785156 37 A 23.999997 10.999996 30 0 0 45.785156 36.998047 A 23.999997 10.999996 30 0 0 45.796875 36.974609 A 23.999997 10.999996 30 0 0 46.162109 36.142578 A 23.999997 10.999996 30 0 0 46.3125 35.589844 A 23.999997 10.999996 30 0 0 46.429688 35.027344 A 23.999997 10.999996 30 0 0 46.470703 34.433594 A 23.999997 10.999996 30 0 0 46.478516 33.833984 A 23.999997 10.999996 30 0 0 46.410156 33.166016 A 23.999997 10.999996 30 0 0 46.316406 32.544922 A 23.999997 10.999996 30 0 0 46.130859 31.816406 A 23.999997 10.999996 30 0 0 45.943359 31.185547 A 23.999997 10.999996 30 0 0 45.642578 30.412109 A 23.999997 10.999996 30 0 0 45.357422 29.748047 A 23.999997 10.999996 30 0 0 44.96875 28.996094 A 23.999997 10.999996 30 0 0 44.556641 28.25 A 23.999997 10.999996 30 0 0 44.082031 27.505859 A 23.999997 10.999996 30 0 0 43.578125 26.75 A 23.999997 10.999996 30 0 0 43.011719 25.996094 A 23.999997 10.999996 30 0 0 42.398438 25.212891 A 23.999997 10.999996 30 0 0 41.277344 23.916016 A 9.4999963 22.499997 60 0 1 41.269531 23.925781 A 23.999997 10.999996 30 0 0 36.048828 19.185547 A 23.999997 10.999996 30 0 0 30.5 15.472656 A 23.999997 10.999996 30 0 0 24.859375 12.679688 A 23.999997 10.999996 30 0 0 18.929688 10.644531 A 8.2499962 21.249997 0 0 0 18.476562 12.029297 A 22.499997 9.4999963 30 0 1 23.130859 13.566406 A 10.999996 23.999997 60 0 0 19.501953 15.474609 A 10.999996 23.999997 60 0 0 17.394531 16.765625 A 8.2499962 21.249997 0 0 0 16.75 25 A 8.2499962 21.249997 0 0 0 17.009766 30.207031 L 15.849609 30.955078 A 9.4999963 22.499997 0 0 1 15.5 25 A 9.4999963 22.499997 0 0 1 16.382812 15.591797 A 9.4999963 22.499997 0 0 1 16.816406 13.623047 A 9.4999963 22.499997 0 0 1 16.826172 13.585938 A 9.4999963 22.499997 0 0 1 17.333984 11.755859 A 9.4999963 22.499997 0 0 1 17.339844 11.736328 A 9.4999963 22.499997 0 0 1 17.800781 10.361328 A 23.999997 10.999996 30 0 0 17.792969 10.359375 A 9.4999963 22.499997 0 0 1 17.896484 10.099609 A 9.4999963 22.499997 0 0 1 18.376953 8.8984375 A 9.4999963 22.499997 0 0 1 18.572266 8.4667969 A 9.4999963 22.499997 0 0 1 19.083984 7.4238281 A 9.4999963 22.499997 0 0 1 19.306641 7.0214844 A 9.4999963 22.499997 0 0 1 19.847656 6.1210938 A 9.4999963 22.499997 0 0 1 20.111328 5.7382812 A 9.4999963 22.499997 0 0 1 20.654297 5.015625 A 9.4999963 22.499997 0 0 1 20.970703 4.6523438 A 9.4999963 22.499997 0 0 1 21.507812 4.0957031 A 9.4999963 22.499997 0 0 1 21.865234 3.7871094 A 9.4999963 22.499997 0 0 1 22.394531 3.3828125 A 9.4999963 22.499997 0 0 1 22.794922 3.140625 A 9.4999963 22.499997 0 0 1 23.302734 2.8808594 A 9.4999963 22.499997 0 0 1 23.755859 2.71875 A 9.4999963 22.499997 0 0 1 24.232422 2.5917969 A 9.4999963 22.499997 0 0 1 24.996094 2.5 A 9.4999963 22.499997 0 0 1 25 2.5 A 9.4999963 22.499997 0 0 1 25.001953 2.5 A 9.4999963 22.499997 0 0 1 25.519531 2.5625 A 9.4999963 22.499997 0 0 1 26.007812 2.6367188 A 9.4999963 22.499997 0 0 1 26.443359 2.7929688 A 9.4999963 22.499997 0 0 1 26.951172 2.9941406 A 9.4999963 22.499997 0 0 1 27.371094 3.2480469 A 9.4999963 22.499997 0 0 1 27.859375 3.5585938 A 9.4999963 22.499997 0 0 1 28.330078 3.96875 A 9.4999963 22.499997 0 0 1 28.748047 4.3476562 A 9.4999963 22.499997 0 0 1 29.150391 4.8085938 A 9.4999963 22.499997 0 0 1 29.609375 5.3515625 A 9.4999963 22.499997 0 0 1 29.962891 5.8671875 A 9.4999963 22.499997 0 0 1 30.412109 6.5371094 A 9.4999963 22.499997 0 0 1 30.773438 7.1933594 A 9.4999963 22.499997 0 0 1 31.158203 7.90625 A 9.4999963 22.499997 0 0 1 31.46875 8.5898438 A 9.4999963 22.499997 0 0 1 31.873047 9.5078125 A 9.4999963 22.499997 0 0 1 31.919922 9.6328125 A 9.4999963 22.499997 0 0 1 32.205078 10.373047 A 10.999996 23.999997 60 0 0 32.189453 10.376953 A 9.4999963 22.499997 0 0 1 33.048828 13.099609 L 32.003906 13.832031 A 8.2499962 21.249997 0 0 0 31.064453 10.664062 A 10.999996 23.999997 60 0 0 26.630859 12.083984 A 25.249999 12.249996 30 0 1 31.125 14.390625 A 25.249999 12.249996 30 0 1 35.373047 17.142578 A 10.999996 23.999997 0 0 0 34.308594 12.21875 L 34.300781 12.224609 A 10.999996 23.999997 0 0 0 33.603516 10.080078 A 10.999996 23.999997 0 0 0 33.386719 9.5449219 A 10.999996 23.999997 0 0 0 32.876953 8.2773438 A 10.999996 23.999997 0 0 0 32.072266 6.6425781 A 10.999996 23.999997 0 0 0 31.197266 5.1914062 A 10.999996 23.999997 0 0 0 30.259766 3.9375 A 10.999996 23.999997 0 0 0 29.271484 2.8964844 A 10.999996 23.999997 0 0 0 29.269531 2.8945312 A 10.999996 23.999997 0 0 0 29.152344 2.8007812 A 10.999996 23.999997 0 0 0 28.236328 2.0722656 A 10.999996 23.999997 0 0 0 28.199219 2.0507812 A 10.999996 23.999997 0 0 0 27.171875 1.4785156 A 10.999996 23.999997 0 0 0 26.097656 1.1230469 A 10.999996 23.999997 0 0 0 26.095703 1.1230469 A 10.999996 23.999997 0 0 0 25.001953 1 A 10.999996 23.999997 0 0 0 25 1 z M 37.353516 9.6855469 A 10.999996 23.999997 60 0 0 34.791016 9.9121094 A 12.249996 25.249999 0 0 1 35.255859 11.265625 A 9.4999963 22.499997 60 0 1 37.449219 11.072266 A 9.4999963 22.499997 60 0 1 44.486328 13.75 A 9.4999963 22.499997 60 0 1 42.033203 22.96875 A 25.249999 12.249996 30 0 1 42.962891 24.042969 A 10.999996 23.999997 60 0 0 45.785156 13 A 10.999996 23.999997 60 0 0 37.353516 9.6855469 z M 12.638672 9.6972656 A 23.999997 10.999996 30 0 0 4.2167969 13 A 23.999997 10.999996 30 0 0 7.0390625 24.064453 A 12.249996 25.249999 60 0 1 7.9804688 22.986328 A 22.499997 9.4999963 30 0 1 5.515625 13.751953 A 22.499997 9.4999963 30 0 1 11.615234 11.082031 A 22.499997 9.4999963 30 0 1 14.744141 11.267578 A 12.249996 25.249999 0 0 1 15.185547 9.9199219 A 23.999997 10.999996 30 0 0 12.638672 9.6972656 z M 31.765625 40.746094 A 9.4999963 22.499997 0 0 1 25.001953 47.498047 A 9.4999963 22.499997 0 0 1 18.244141 40.767578 A 12.249996 25.249999 60 0 1 16.847656 41.037109 A 10.999996 23.999997 0 0 0 25.001953 49 A 10.999996 23.999997 0 0 0 33.171875 41.023438 A 25.249999 12.249996 30 0 1 31.765625 40.746094 z "
       style="opacity:1;fill:#f2f2f2;fill-opacity:1;stroke:#000000;stroke-width:0;stroke-linejoin:miter;stroke-miterlimit:4;stroke-dasharray:none;stroke-opacity:0" />
    <path
       style="opacity:1;fill:#0f1012;fill-opacity:1;stroke:#0f1012;stroke-width:0;stroke-linejoin:miter;stroke-miterlimit:4;stroke-dasharray:none;stroke-opacity:0"
       d="m 28.502693,1019.9267 a 5.7480196,13.412048 60 0 0 -2.8753,1.4569 5.7480196,13.412048 60 0 0 -2.6981,1.7589 5.7480196,13.412048 0 0 0 -0.1759,3.2195 5.7480196,13.412048 0 0 0 0.1734,3.2171 13.412048,5.7480196 30 0 0 2.7006,1.76 13.412048,5.7480196 30 0 0 2.8728,1.4583 5.7480196,13.412048 60 0 0 2.8752,-1.4583 5.7480196,13.412048 60 0 0 2.6982,-1.7575 5.7480196,13.412048 0 0 0 0.1758,-3.2196 5.7480196,13.412048 0 0 0 -0.1734,-3.217 13.412048,5.7480196 30 0 0 -2.7006,-1.7614 13.412048,5.7480196 30 0 0 -2.8727,-1.4569 z"
       id="path4386-4-2-97-7" />
    <path
       id="path6766-4-6-2-4-5"
       d="m 34.085193,1023.1377 a 13.62358,5.7521768 30 0 0 -2.708,-1.7576 13.62358,5.7521768 30 0 0 -2.8748,-1.4646 5.7521768,13.62358 60 0 0 -2.8771,1.4644 5.7521768,13.62358 60 0 0 -2.7034,1.7603 l 5.5795,3.2213 5.5838,-3.2238 z"
       style="opacity:0.18000004;fill:#ffffff;fill-opacity:1;stroke:#000000;stroke-width:0;stroke-linejoin:miter;stroke-miterlimit:4;stroke-dasharray:none;stroke-opacity:0" />
    <path
       id="path6766-4-6-7-0-9"
       d="m 22.917493,1023.1387 a 5.7518125,13.622716 0 0 0 -0.168,3.2238 5.7518125,13.622716 0 0 0 0.1689,3.2217 13.622716,5.7518125 30 0 0 2.7066,1.7593 13.622716,5.7518125 30 0 0 2.876,1.4611 l -10e-5,-6.4423 -5.5834,-3.2236 z"
       style="opacity:0.1;fill:#ffffff;fill-opacity:1;stroke:#000000;stroke-width:0;stroke-linejoin:miter;stroke-miterlimit:4;stroke-dasharray:none;stroke-opacity:0" />
  </g>
</svg>
